<svg width="75" height="75" viewBox="0 0 75 75" fill="none" xmlns="http://www.w3.org/2000/svg">
<rect x="1" y="1" width="73" height="73" rx="4" fill="white" stroke="#C5A880" stroke-width="2"/>
<path d="M20 20V25H25C27.8 25 30 24.5 30 24C30 23.4 28.6 23 26.9 23C23 23 24 21.4 29.4 18.9C49.6 9.8 68.3 35 53.7 51.7C43 63.8 23 59.8 18 44.4C16.8 40.9 17.1 33.5 18.5 29.7C18.9 28.8 18.8 28 18.2 28C16.7 28 15 33.7 15 38.4C15 43 18 50.3 21.3 53.9C24.6 57.5 32.8 61 38 61C43.2 61 51.4 57.5 54.7 53.9C58.1 50.2 61 42.9 61 38C61 32.8 57.5 24.6 53.9 21.3C46.7 14.7 36.5 13.4 27.6 17.8L22 20.7V17.8C22 16.3 21.6 15 21 15C20.5 15 20 17.2 20 20Z" fill="#C5A880"/>
<path d="M37 19C37 19.5 37.5 20 38 20C38.6 20 39 19.5 39 19C39 18.4 38.6 18 38 18C37.5 18 37 18.4 37 19Z" fill="#C5A880"/>
<path d="M28 31.5C27.3 32.4 27 33.4 27.4 33.7C27.8 34.1 28.5 33.8 28.9 33.1C29.9 31.6 33.2 32 33.7 33.7C33.9 34.3 32.5 36.6 30.6 38.8C28.6 41 27 43 27 43.4C27 43.7 29 44 31.5 44C34 44 36 43.5 36 43C36 42.4 34.6 42 32.8 42H29.6L32.8 38.7C34.6 36.9 36 34.7 36 33.9C36 30.2 30.4 28.6 28 31.5Z" fill="#C5A880"/>
<path d="M43.8 31.7C41.2 34.8 39 38.9 39 40.5C39 41.5 40 42 42.4 42C44.3 42 46 42.6 46.3 43.2C46.6 44.1 47.2 43.9 48.3 42.5C49.2 41.4 49.4 40.3 48.9 40.2C48.4 40 48 37.6 48 34.9C48 29.6 46.6 28.5 43.8 31.7ZM45.6 38.6C45.1 39.9 41 40.7 41 39.4C41 39.1 42 37.4 43.3 35.7C45.4 32.6 45.5 32.6 45.8 34.8C46 36.1 45.9 37.8 45.6 38.6Z" fill="#C5A880"/>
<path d="M18 38C18 38.5 18.5 39 19 39C19.6 39 20 38.5 20 38C20 37.4 19.6 37 19 37C18.5 37 18 37.4 18 38Z" fill="#C5A880"/>
<path d="M56 38C56 38.5 56.5 39 57 39C57.6 39 58 38.5 58 38C58 37.4 57.6 37 57 37C56.5 37 56 37.4 56 38Z" fill="#C5A880"/>
<path d="M37 57C37 57.5 37.5 58 38 58C38.6 58 39 57.5 39 57C39 56.4 38.6 56 38 56C37.5 56 37 56.4 37 57Z" fill="#C5A880"/>
</svg>
