<svg width="75" height="75" viewBox="0 0 75 75" fill="none" xmlns="http://www.w3.org/2000/svg">
<rect x="1" y="1" width="73" height="73" rx="4" fill="white" stroke="#C5A880" stroke-width="2"/>
<path d="M36 25.8C22.9 32.1 19.4 34.1 19.2 35.8C18.9 37.6 18.2 38 14.9 38C12.8 38 11 38.5 11 39C11 39.6 12.6 43.3 14.6 47.3L18.3 54.5L20.9 51.3C22.9 48.9 24.1 48.2 25.8 48.7C27.2 49 30.7 47.9 35.6 45.6C44.5 41.4 45.7 41.7 46.2 48.8L46.5 53.5L53.8 53.8C58.3 54 61 53.7 61 53C61 52.4 58.3 52 54.5 52H48V48.1C48 45.9 48.6 43.7 49.5 43C50.3 42.3 51 41 51 40.1C51 39.1 52.8 37.5 55.5 36.2C58 35 60.3 33.3 60.6 32.6C61.2 31 55.1 18.8 53.5 18.3C53 18.1 45.1 21.5 36 25.8ZM56.2 26.1L58.9 32.2L43.5 39.6C35 43.7 27.7 47 27.2 47C26.2 47 20.7 35.9 21.4 35.3C21.9 34.8 52.2 20.2 53 20.1C53.3 20 54.7 22.7 56.2 26.1ZM22 42.6C22.8 44.7 22.6 45.8 20.8 48.2L18.7 51.3L16.3 46C15 43.1 14 40.6 14 40.4C14 40.2 15.6 40 17.5 40C20.4 40 21.2 40.5 22 42.6ZM48.5 41C48.2 41.5 47.5 42 46.9 42C46.4 42 46 41.5 46 41C46 40.4 46.7 40 47.6 40C48.4 40 48.8 40.4 48.5 41Z" fill="#C5A880"/>
</svg>
