<svg width="35" height="35" viewBox="0 0 35 35" fill="none" xmlns="http://www.w3.org/2000/svg">
<rect width="35" height="35" rx="5" fill="#C5A880"/>
<path d="M24.1495 5.33816C23.1495 5.68815 19.4996 10.538 19.7996 11.038C20.1496 11.638 25.3495 11.638 25.6994 11.038C25.8494 10.788 25.5494 10.038 24.9995 9.38805C23.9995 8.08809 24.3995 6.98812 25.7994 6.98812C27.3994 6.98812 27.9994 8.53807 27.9994 12.438V16.3379H23.6495C21.1996 16.3379 16.0497 16.3879 12.1498 16.4379L5 16.4879V17.9878C5 18.7878 5.24999 19.4878 5.49999 19.4878C5.79998 19.4878 5.99997 20.4378 5.99997 21.5877C5.99997 23.7377 7.49993 26.9876 8.49991 26.9876C8.7499 26.9876 8.99989 27.1876 8.99989 27.4876C8.99989 27.7376 8.54991 27.9876 7.99992 27.9876C7.34994 27.9876 6.99995 28.3375 6.99995 28.9875C6.99995 30.3375 8.94989 30.3375 10.6498 28.9875C11.7498 28.1375 12.6498 27.9876 17.4997 27.9876C22.3495 27.9876 23.2495 28.1375 24.3495 28.9875C26.0494 30.3375 27.9994 30.3375 27.9994 28.9875C27.9994 28.3375 27.6494 27.9876 26.9994 27.9876C26.4494 27.9876 25.9994 27.7376 25.9994 27.4876C25.9994 27.1876 26.2494 26.9876 26.4994 26.9876C27.4994 26.9876 28.9994 23.7377 28.9994 21.5877C28.9994 20.4378 29.2494 19.4878 29.4993 19.4878C30.1993 19.4878 30.1493 8.83807 29.4493 7.33811C28.5994 5.53815 26.0494 4.53818 24.1495 5.33816ZM26.9994 21.4877C26.9994 22.9877 26.6494 23.8377 25.7494 24.7376C24.5995 25.9376 24.2995 25.9876 17.4997 25.9876C10.6998 25.9876 10.3999 25.9376 9.24989 24.7376C8.34991 23.8377 7.99992 22.9877 7.99992 21.4877V19.4878H17.4997H26.9994V21.4877Z" fill="white"/>
<path d="M19.9996 12.4879C19.9996 12.7379 20.2496 12.9879 20.4996 12.9879C20.7996 12.9879 20.9996 12.7379 20.9996 12.4879C20.9996 12.1879 20.7996 11.9879 20.4996 11.9879C20.2496 11.9879 19.9996 12.1879 19.9996 12.4879Z" fill="white"/>
<path d="M22.2496 12.4879C22.3995 12.7379 22.6495 12.9879 22.7995 12.9879C22.8995 12.9879 22.9995 12.7379 22.9995 12.4879C22.9995 12.1879 22.7495 11.9879 22.4495 11.9879C22.1996 11.9879 22.0996 12.1879 22.2496 12.4879Z" fill="white"/>
<path d="M24.4994 12.4879C24.4994 12.7379 24.7494 12.9879 24.9994 12.9879C25.2994 12.9879 25.4994 12.7379 25.4994 12.4879C25.4994 12.1879 25.2994 11.9879 24.9994 11.9879C24.7494 11.9879 24.4994 12.1879 24.4994 12.4879Z" fill="white"/>
<path d="M19.7995 13.938C19.5995 14.288 19.5495 14.688 19.6995 14.838C20.1495 15.288 20.6495 14.638 20.3995 13.938C20.1995 13.388 20.0995 13.388 19.7995 13.938Z" fill="white"/>
<path d="M22.2495 13.9378C22.0995 14.1878 22.1995 14.5378 22.4994 14.7378C22.7494 14.8878 22.9994 14.6878 22.9994 14.2878C22.9994 13.3878 22.6994 13.2378 22.2495 13.9378Z" fill="white"/>
<path d="M24.9995 14.1879C24.9995 14.6379 25.2495 14.9879 25.4995 14.9879C25.7995 14.9879 25.9995 14.7879 25.9995 14.5379C25.9995 14.2379 25.7995 13.8879 25.4995 13.7379C25.2495 13.588 24.9995 13.7879 24.9995 14.1879Z" fill="white"/>
</svg>
