<svg width="35" height="35" viewBox="0 0 35 35" fill="none" xmlns="http://www.w3.org/2000/svg">
<rect width="35" height="35" rx="5" fill="#C5A880"/>
<path d="M10.8152 7.28261L5 9.51087V17.2283V24.9457L11.25 27.4457L17.5 30L23.75 27.5L30 25V17.2283V9.51087L23.8043 7.22826C20.4348 6.03261 17.4457 5 17.1739 5.05435C16.9022 5.1087 14.0761 6.08696 10.8152 7.28261ZM16.8478 13.2609L16.6848 19.8913L12.0652 21.6304C9.51087 22.6087 7.11957 23.4239 6.73913 23.4239C6.19565 23.4783 6.08696 21.9565 6.19565 16.8478L6.3587 10.2174L10.9783 8.47826C13.5326 7.5 15.9239 6.68478 16.3043 6.68478C16.8478 6.63044 16.9565 8.15217 16.8478 13.2609ZM24.0217 8.47826L28.6413 10.2174L28.8043 16.8478C28.8587 20.7609 28.75 23.4783 28.4239 23.4783C26.4674 23.4783 26.1957 22.8261 26.1957 17.9891V13.0978L23.6957 12.0652C22.337 11.4674 20.9783 10.9783 20.7065 10.9783C20.4348 10.9783 20.2174 13.2065 20.2174 15.8696C20.2174 20.6522 20.163 20.7609 19.1304 20.2174C18.1522 19.6739 18.0435 19.0761 18.0435 13.1522C18.0435 8.26087 18.2065 6.63044 18.75 6.68478C19.0761 6.68478 21.4674 7.5 24.0217 8.47826ZM23.6957 13.1522C25.0543 13.6413 25.1087 13.8587 25.1087 17.9891V22.2826L23.2065 21.6848L21.3043 21.1413V16.8478C21.3043 14.5109 21.5217 12.6087 21.7935 12.6087C22.0652 12.6087 22.9348 12.8261 23.6957 13.1522ZM22.7717 22.7174C25.2717 23.587 27.2826 24.4565 27.2826 24.6196C27.2826 24.7826 25.0543 25.8152 22.3913 26.8478L17.4457 28.8043L12.6087 26.8478C9.8913 25.7609 7.71739 24.7283 7.71739 24.5652C7.71739 24.1848 17.1196 20.8152 17.7717 20.9783C18.0978 21.087 20.3261 21.8478 22.7717 22.7174Z" fill="white"/>
<path d="M11.5217 12.0109L9.07605 13.0435L8.91301 16.0869C8.74997 19.5652 8.96736 19.7283 12.6087 18.2609L14.7826 17.3913V14.1848C14.7826 12.4456 14.6195 10.9783 14.4021 11.0326C14.1304 11.0326 12.8804 11.4674 11.5217 12.0109ZM13.6956 14.7283C13.6956 16.25 13.4239 16.9022 12.7717 17.1196C12.2282 17.2283 11.3587 17.5543 10.8695 17.7717C10.0543 18.0978 9.89127 17.8261 9.89127 16.0326C9.89127 14.2935 10.163 13.75 11.1413 13.2609C13.2608 12.2283 13.6956 12.5 13.6956 14.7283Z" fill="white"/>
</svg>
