<svg width="35" height="35" viewBox="0 0 35 35" fill="none" xmlns="http://www.w3.org/2000/svg">
<rect width="35" height="35" rx="5" fill="#C5A880"/>
<path d="M5.8 5.90675C5.2 6.50675 5 7.80675 5 11.5567C5 15.8067 5.15 16.6567 6.15 18.1567C7.05 19.5067 7.65 19.9067 9.15 20.0067C10.2 20.1067 11 19.9567 11 19.6567C11 19.3567 10.35 19.1067 9.55 19.1067C8.7 19.1067 7.9 18.9067 7.75 18.6067C7.55 18.2567 10.9 18.1067 17.5 18.1067C24.1 18.1067 27.45 18.2567 27.25 18.6067C27.1 18.9067 26.3 19.1067 25.45 19.1067C24.65 19.1067 24 19.3567 24 19.6567C24 19.9567 24.8 20.1067 25.85 20.0067C27.35 19.9067 27.95 19.5067 28.85 18.1567C29.85 16.6567 30 15.8067 30 11.5567C30 7.80675 29.8 6.50675 29.2 5.90675C28.05 4.70675 6.95 4.70675 5.8 5.90675ZM28.9 10.7067L29.05 15.1067H17.5H6V10.9567C6 8.65675 6.15 6.60675 6.35 6.40675C6.55 6.25675 11.65 6.15675 17.7 6.20675L28.75 6.35675L28.9 10.7067ZM28.75 16.6067C28.35 17.3067 6.65 17.3067 6.25 16.6067C6.05 16.2567 9.9 16.1067 17.5 16.1067C25.1 16.1067 28.95 16.2567 28.75 16.6067Z" fill="white"/>
<path d="M24 8.85693C24 9.25693 23.7 9.45693 23.35 9.30693C22.85 9.15693 22.65 9.50693 22.65 10.6069C22.65 11.7069 22.85 12.0569 23.35 11.9069C23.7 11.7569 24 11.9569 24 12.3569C24 12.7569 24.25 13.1069 24.5 13.1069C24.8 13.1069 25 12.7569 25 12.3569C25 11.9569 25.3 11.7569 25.65 11.9069C26.15 12.0569 26.35 11.7069 26.35 10.6069C26.35 9.50693 26.15 9.15693 25.65 9.30693C25.3 9.45693 25 9.25693 25 8.85693C25 8.45693 24.8 8.10693 24.5 8.10693C24.25 8.10693 24 8.45693 24 8.85693Z" fill="white"/>
<path d="M12.2 19.6569C11.7 20.5069 12.85 21.4569 13.55 20.7569C14.15 20.1569 13.75 19.1069 13 19.1069C12.75 19.1069 12.4 19.3569 12.2 19.6569Z" fill="white"/>
<path d="M16.7 19.6569C16.2 20.5069 17.35 21.4569 18.05 20.7569C18.65 20.1569 18.25 19.1069 17.5 19.1069C17.25 19.1069 16.9 19.3569 16.7 19.6569Z" fill="white"/>
<path d="M21.2 19.6569C20.7 20.5069 21.85 21.4569 22.55 20.7569C23.15 20.1569 22.75 19.1069 22 19.1069C21.75 19.1069 21.4 19.3569 21.2 19.6569Z" fill="white"/>
<path d="M11.7 22.6569C11.2 23.5069 12.35 24.4569 13.05 23.7569C13.65 23.1569 13.25 22.1069 12.5 22.1069C12.25 22.1069 11.9 22.3569 11.7 22.6569Z" fill="white"/>
<path d="M16.7 22.6569C16.2 23.5069 17.35 24.4569 18.05 23.7569C18.65 23.1569 18.25 22.1069 17.5 22.1069C17.25 22.1069 16.9 22.3569 16.7 22.6569Z" fill="white"/>
<path d="M21.7 22.6569C21.2 23.5069 22.35 24.4569 23.05 23.7569C23.65 23.1569 23.25 22.1069 22.5 22.1069C22.25 22.1069 21.9 22.3569 21.7 22.6569Z" fill="white"/>
<path d="M10.7 25.6569C10.2 26.5069 11.35 27.4569 12.05 26.7569C12.65 26.1569 12.25 25.1069 11.5 25.1069C11.25 25.1069 10.9 25.3569 10.7 25.6569Z" fill="white"/>
<path d="M16.7 25.6569C16.2 26.5069 17.35 27.4569 18.05 26.7569C18.65 26.1569 18.25 25.1069 17.5 25.1069C17.25 25.1069 16.9 25.3569 16.7 25.6569Z" fill="white"/>
<path d="M22.7 25.6569C22.2 26.5069 23.35 27.4569 24.05 26.7569C24.65 26.1569 24.25 25.1069 23.5 25.1069C23.25 25.1069 22.9 25.3569 22.7 25.6569Z" fill="white"/>
<path d="M8.70002 28.6569C8.20002 29.5069 9.35002 30.4569 10.05 29.7569C10.65 29.1569 10.25 28.1069 9.50002 28.1069C9.25002 28.1069 8.90002 28.3569 8.70002 28.6569Z" fill="white"/>
<path d="M16.7 28.6569C16.2 29.5069 17.35 30.4569 18.05 29.7569C18.65 29.1569 18.25 28.1069 17.5 28.1069C17.25 28.1069 16.9 28.3569 16.7 28.6569Z" fill="white"/>
<path d="M24.7 28.6569C24.2 29.5069 25.35 30.4569 26.05 29.7569C26.65 29.1569 26.25 28.1069 25.5 28.1069C25.25 28.1069 24.9 28.3569 24.7 28.6569Z" fill="white"/>
</svg>
