<svg width="35" height="35" viewBox="0 0 35 35" fill="none" xmlns="http://www.w3.org/2000/svg">
<rect width="35" height="35" rx="5" fill="#C5A880"/>
<path d="M5 13.125C5 20.1136 5.17045 21.4773 6.13636 23.3523C6.76136 24.4886 7.27273 26.4773 7.27273 27.7273V30H13.2955C18.4091 30 19.2614 29.8864 18.9773 29.1477C18.8068 28.6932 18.5227 27.9545 18.3523 27.5568C18.125 27.1023 18.8068 26.4205 20.0568 25.8523C21.3636 25.2273 22.3864 24.2045 22.9545 22.7841C23.4659 21.5909 24.1477 20.0568 24.4886 19.375C25.4545 17.2727 24.6023 16.9318 18.2955 16.9318H12.3864V10.9659V5H8.69318H5V13.125ZM11.25 11.5341V16.9318H8.69318H6.13636V11.5341V6.13636H8.69318H11.25V11.5341ZM23.75 18.6364C23.75 18.9773 20.4545 19.2045 14.9432 19.2045C9.43182 19.2045 6.13636 18.9773 6.13636 18.6364C6.13636 18.2955 9.43182 18.0682 14.9432 18.0682C20.4545 18.0682 23.75 18.2955 23.75 18.6364ZM22.6136 21.25C22.6136 21.7045 21.875 22.8977 20.9659 23.8068C19.375 25.3977 19.0909 25.4545 13.8636 25.4545H8.40909L7.27273 23.1818C6.64773 21.9886 6.13636 20.7955 6.13636 20.625C6.13636 20.4545 9.82955 20.3409 14.375 20.3409C21.4773 20.3409 22.6136 20.4545 22.6136 21.25ZM16.9318 26.8182C16.9318 26.9318 17.1023 27.4432 17.2727 27.9545C17.5568 28.75 16.9886 28.8636 13.0114 28.8636C8.80682 28.8636 8.40909 28.75 8.40909 27.7273C8.40909 26.7045 8.80682 26.5909 12.6705 26.5909C15 26.5909 16.9318 26.7045 16.9318 26.8182Z" fill="white"/>
<path d="M22.0454 7.21591C22.0454 8.40909 22.2159 10.5114 22.3863 11.875L22.7272 14.375H26.0227H29.3181L29.659 11.875C29.8295 10.5114 30 8.40909 30 7.21591V5H26.0227H22.0454V7.21591ZM28.8636 8.125V10.1136H26.0227H23.1818V8.125V6.13636H26.0227H28.8636V8.125ZM28.2954 12.0455C28.2954 12.9545 26.4772 13.5227 24.8863 13.125C22.784 12.5568 23.5795 11.25 26.0227 11.25C27.5568 11.25 28.2954 11.4773 28.2954 12.0455Z" fill="white"/>
</svg>
