<svg width="35" height="35" viewBox="0 0 35 35" fill="none" xmlns="http://www.w3.org/2000/svg">
<rect width="35" height="35" rx="5" fill="#C5A880"/>
<path d="M6.33929 8.53058C6.24008 8.8778 6.04167 11.3084 5.84325 13.8877C5.69444 16.4671 5.44643 20.6834 5.29762 23.1635L5 27.7766H6.73611C8.27381 27.7766 8.52183 27.6278 8.67063 26.4373L8.81944 25.0484H17.5H26.1806L26.3294 26.3877C26.4782 27.6278 26.7262 27.7766 28.2639 27.7766H30L29.7024 22.6675C29.504 19.8897 29.2064 15.475 29.0079 12.8957L28.6607 8.18336L17.5992 8.03455C9.01786 7.93534 6.5377 8.03455 6.33929 8.53058ZM27.9167 12.3996C27.9167 15.2766 27.7679 15.7726 27.1726 15.5742C26.7262 15.3758 26.4286 14.6318 26.4286 13.8381C26.4286 11.8044 25.3869 11.5068 17.5 11.5068C9.6131 11.5068 8.57143 11.8044 8.57143 13.8381C8.57143 14.6318 8.27381 15.3758 7.82738 15.5742C7.23214 15.7726 7.08333 15.2766 7.08333 12.3996V8.92741H17.5H27.9167V12.3996ZM16.2103 12.6972C17.6488 13.2429 17.0536 13.8877 15.1687 13.8877C14.127 13.8877 12.4405 14.0861 11.4484 14.3342C9.81151 14.731 9.56349 14.6814 9.56349 13.8877C9.56349 13.3917 9.86111 12.8461 10.2083 12.7469C11.1012 12.35 15.3175 12.35 16.2103 12.6972ZM24.6429 12.6972C25.0893 12.8461 25.4365 13.3917 25.4365 13.8877C25.4365 14.6814 25.1885 14.731 23.6012 14.3342C22.5595 14.0861 20.873 13.8877 19.881 13.8877C18.0456 13.8877 17.3512 13.2429 18.6409 12.7469C19.5337 12.35 23.75 12.35 24.6429 12.6972ZM26.0317 16.0703C27.2222 16.6159 28.0159 17.4592 28.3631 18.4512C29.4048 21.477 29.9008 21.3282 17.5 21.3282C5.09921 21.3282 5.59524 21.477 6.5873 18.5008C7.57937 15.723 10.5556 14.8798 18.4921 15.0782C22.7083 15.1774 24.6925 15.4254 26.0317 16.0703ZM28.9087 24.5524C28.9087 26.1893 28.7103 26.7845 28.1647 26.7845C27.7679 26.7845 27.4206 26.3877 27.4206 25.8917C27.4206 24.0068 26.5278 23.8084 17.5 23.8084C8.47222 23.8084 7.57937 24.0068 7.57937 25.8917C7.57937 26.3877 7.23214 26.7845 6.83532 26.7845C6.28968 26.7845 6.09127 26.1893 6.09127 24.5524V22.3203H17.5H28.9087V24.5524Z" fill="white"/>
</svg>
