<svg width="75" height="75" viewBox="0 0 75 75" fill="none" xmlns="http://www.w3.org/2000/svg">
<rect x="1" y="1" width="73" height="73" rx="4" fill="white" stroke="#C5A880" stroke-width="2"/>
<path d="M31.5 15.4C24.6 18.5 21.1 25.7 22.4 34.3C23.5 41.3 35.1 62 38 62C39.6 62 49.8 45.5 52 39.3C55.6 29.3 53.9 22 46.8 16.7C43.5 14.2 35.5 13.5 31.5 15.4ZM44.8 18C54.7 24.1 54 36 42.7 52.7C40.4 56.2 38.2 59 37.9 59C37.5 59 35.4 56.2 33.2 52.8C24.6 39.6 22.1 29.3 25.9 23.2C30.2 16.4 38.4 14.1 44.8 18Z" fill="#C5A880"/>
<path d="M33.2 26.3C30.4 29.3 30.4 33.1 33.3 35.8C36.3 38.6 40.1 38.6 42.8 35.7C45.6 32.7 45.6 28.9 42.7 26.2C39.7 23.4 35.9 23.4 33.2 26.3ZM41.4 27.6C44.5 30.6 42.3 36 38 36C35.6 36 33 33.4 33 31C33 28.6 35.6 26 38 26C39 26 40.6 26.7 41.4 27.6Z" fill="#C5A880"/>
</svg>
