<svg width="35" height="35" viewBox="0 0 35 35" fill="none" xmlns="http://www.w3.org/2000/svg">
<rect width="35" height="35" rx="5" fill="#C5A880"/>
<path d="M14.25 6.2C10.8 7.75 9.04999 11.35 9.69999 15.65C10.25 19.15 16.05 29.5 17.5 29.5C18.3 29.5 23.4 21.25 24.5 18.15C26.3 13.15 25.45 9.5 21.9 6.85C20.25 5.6 16.25 5.25 14.25 6.2ZM20.9 7.5C25.85 10.55 25.5 16.5 19.85 24.85C18.7 26.6 17.6 28 17.45 28C17.25 28 16.2 26.6 15.1 24.9C10.8 18.3 9.54999 13.15 11.45 10.1C13.6 6.7 17.7 5.55 20.9 7.5Z" fill="white"/>
<path d="M15.1 11.65C13.7 13.15 13.7 15.05 15.15 16.4C16.65 17.8 18.55 17.8 19.9 16.35C21.3 14.85 21.3 12.95 19.85 11.6C18.35 10.2 16.45 10.2 15.1 11.65ZM19.2 12.3C20.75 13.8 19.65 16.5 17.5 16.5C16.3 16.5 15 15.2 15 14C15 12.8 16.3 11.5 17.5 11.5C18 11.5 18.8 11.85 19.2 12.3Z" fill="white"/>
</svg>
