<svg width="75" height="75" viewBox="0 0 75 75" fill="none" xmlns="http://www.w3.org/2000/svg">
<rect x="1" y="1" width="73" height="73" rx="4" fill="white" stroke="#C5A880" stroke-width="2"/>
<path d="M30.2 16C26.8 17.6 22.1 19.4 19.9 20L15.7 21.1L16.4 27.4C17.3 36.5 19.4 42.8 23.9 49.8C27.3 55 35.9 62.9 38.2 63C38.6 63 41.6 60.5 44.9 57.4C53.8 49.2 60 35.4 60 24C60 21.8 59.4 21.1 57.3 20.5C55.7 20.2 51.1 18.3 46.9 16.4C42.7 14.5 38.6 13 37.9 13C37.1 13 33.7 14.3 30.2 16ZM43.8 17.4C46.4 18.7 50.5 20.4 52.9 21.1C55.2 21.8 57.4 23 57.7 23.7C58.7 26.2 56 37.4 52.9 43.8C49.6 50.6 41 60 38.1 60C34.6 60 27.2 52.2 23.5 44.7C20.1 37.7 17.3 26.4 18.3 23.7C18.6 23 20.8 21.8 23.1 21.1C25.5 20.4 29.5 18.7 32 17.4C37.7 14.5 38.1 14.5 43.8 17.4Z" fill="#C5A880"/>
<path d="M33.9999 26C32.8999 27.1 31.9999 28.9 31.9999 29.9C31.9999 30.9 31.2999 32.1 30.4999 32.4C29.1999 32.8 28.9999 34.3 29.1999 39.2L29.4999 45.5H37.9999H46.4999L46.7999 39.2C46.9999 34.3 46.7999 32.8 45.4999 32.4C44.6999 32.1 43.9999 30.9 43.9999 29.9C43.9999 27.4 40.4999 24 37.9999 24C36.8999 24 35.0999 24.9 33.9999 26ZM40.7999 27.2C41.4999 27.9 41.9999 29.2 41.9999 30.2C41.9999 31.6 41.1999 32 37.9999 32C34.7999 32 33.9999 31.6 33.9999 30.2C33.9999 28 35.8999 26 37.9999 26C38.8999 26 40.0999 26.5 40.7999 27.2ZM44.9999 39V44H37.9999H30.9999V39V34H37.9999H44.9999V39Z" fill="#C5A880"/>
<path d="M37 39C37 40.1 37.5 41 38 41C38.6 41 39 40.1 39 39C39 37.9 38.6 37 38 37C37.5 37 37 37.9 37 39Z" fill="#C5A880"/>
</svg>
