<svg width="75" height="75" viewBox="0 0 75 75" fill="none" xmlns="http://www.w3.org/2000/svg">
<path fill-rule="evenodd" clip-rule="evenodd" d="M7.6062 67.6609L11.8156 52.2938C9.2187 47.7969 7.85308 42.6938 7.85464 37.4672C7.86245 21.1156 21.1687 7.8125 37.5218 7.8125C45.4578 7.81563 52.9046 10.9047 58.5062 16.5094C64.1062 22.1156 67.1906 29.5656 67.1875 37.4906C67.1812 53.8422 53.8718 67.1469 37.5218 67.1469C37.5203 67.1469 37.5218 67.1469 37.5218 67.1469H37.5093C32.5453 67.1453 27.6656 65.9 23.3328 63.5359L7.6062 67.6609Z" fill="white"/>
<path fill-rule="evenodd" clip-rule="evenodd" d="M7.60625 68.4422C7.4 68.4422 7.2 68.3609 7.05156 68.2109C6.85625 68.0125 6.77969 67.7234 6.85313 67.4563L10.9766 52.4C8.42031 47.8594 7.07188 42.7031 7.075 37.4688C7.08125 20.6844 20.7391 7.03125 37.5219 7.03125C45.6625 7.03438 53.3109 10.2047 59.0594 15.9578C64.8078 21.7125 67.9719 29.3594 67.9688 37.4906C67.9625 54.2734 54.3031 67.9281 37.5219 67.9281C32.5391 67.9266 27.6094 66.6969 23.2344 64.3703L7.80469 68.4156C7.73906 68.4344 7.67344 68.4422 7.60625 68.4422Z" fill="white"/>
<path fill-rule="evenodd" clip-rule="evenodd" d="M37.5219 7.8125C45.4578 7.81563 52.9047 10.9047 58.5062 16.5094C64.1062 22.1156 67.1906 29.5656 67.1875 37.4906C67.1812 53.8422 53.8719 67.1469 37.5219 67.1469H37.5094C32.5453 67.1453 27.6656 65.9 23.3328 63.5359L7.60623 67.6609L11.8156 52.2938C9.21873 47.7969 7.85311 42.6938 7.85467 37.4672C7.86248 21.1156 21.1687 7.8125 37.5219 7.8125ZM37.5219 6.25C20.3094 6.25 6.29998 20.2531 6.29217 37.4672C6.29061 42.7281 7.61873 47.9125 10.1375 52.5016L6.09842 67.25C5.95155 67.7891 6.10155 68.3641 6.4953 68.7609C6.79217 69.0609 7.19373 69.225 7.60623 69.225C7.73905 69.225 7.87186 69.2078 8.00311 69.1734L23.139 65.2047C27.5578 67.4984 32.5109 68.7094 37.5094 68.7109C54.7344 68.7109 68.7437 54.7063 68.7516 37.4922C68.7547 29.15 65.5094 21.3063 59.6141 15.4062C53.7156 9.50469 45.8703 6.25313 37.5219 6.25Z" fill="#CFD8DC"/>
<path fill-rule="evenodd" clip-rule="evenodd" d="M54.9625 20.0499C50.3063 15.3905 44.1172 12.8233 37.5297 12.8218C23.9297 12.8218 12.8688 23.878 12.8626 37.4686C12.861 42.1265 14.1641 46.6608 16.6329 50.5874L17.2204 51.5202L14.7282 60.6155L24.061 58.1686L24.9625 58.703C28.7469 60.9499 33.0875 62.1374 37.5125 62.139H37.5219C51.1125 62.139 62.1735 51.0812 62.1782 37.489C62.1797 30.903 59.6188 24.7093 54.9625 20.0499Z" fill="#40C351"/>
<path fill-rule="evenodd" clip-rule="evenodd" d="M30.1062 25.0702C29.5516 23.8358 28.9672 23.8108 28.4375 23.7889C28.0047 23.7702 27.5109 23.7718 27.0172 23.7718C26.5234 23.7718 25.7203 23.9577 25.0406 24.6999C24.3609 25.4421 22.4453 27.2343 22.4453 30.8811C22.4453 34.528 25.1016 38.053 25.4719 38.5468C25.8422 39.0405 30.6 46.7639 38.1344 49.7358C44.3953 52.2046 45.6703 51.7139 47.0297 51.5905C48.3891 51.4671 51.4156 49.7983 52.0328 48.0671C52.65 46.3358 52.65 44.853 52.4656 44.5436C52.2797 44.2343 51.7859 44.0499 51.0453 43.678C50.3047 43.3061 46.6594 41.5139 45.9797 41.2671C45.3 41.0202 44.8062 40.8968 44.3109 41.6389C43.8172 42.3796 42.3969 44.0499 41.9641 44.5436C41.5312 45.0389 41.0984 45.1014 40.3578 44.7296C39.6172 44.3577 37.2297 43.5764 34.3969 41.0514C32.1937 39.0874 30.7063 36.6608 30.2734 35.9186C29.8406 35.178 30.2266 34.7764 30.5984 34.4061C30.9312 34.0733 31.3391 33.5405 31.7109 33.1077C32.0813 32.6749 32.2047 32.3655 32.4516 31.8718C32.6984 31.3764 32.575 30.9436 32.3891 30.5733C32.2063 30.2014 30.7656 26.5358 30.1062 25.0702Z" fill="white"/>
</svg>
